<svg width="42" height="42" viewBox="0 0 42 42" fill="none" xmlns="http://www.w3.org/2000/svg">
<path d="M39.375 31.5H34.125V26.25H31.5V31.5H26.25V34.125H31.5V39.375H34.125V34.125H39.375V31.5Z" fill="#CC2B24"/>
<path d="M20.2125 39.375L6.5625 31.2375C5.775 30.7125 5.25 29.925 5.25 29.0063V12.9937C5.25 12.075 5.775 11.1562 6.5625 10.7625L19.6875 3.01875C20.0813 2.75625 20.475 2.625 21 2.625C21.525 2.625 21.9188 2.75625 22.3125 3.01875L35.4375 10.7625C36.225 11.2875 36.75 12.075 36.75 12.9937V21H34.125V12.9937L21 5.25L7.875 12.9937V29.0063L21.6562 37.1437L20.2125 39.375Z" fill="#CC2B24"/>
</svg>
