<svg width="27" height="27" viewBox="0 0 27 27" fill="none" xmlns="http://www.w3.org/2000/svg">
<path d="M21.0485 8.11128C20.9439 8.00583 20.8195 7.92214 20.6824 7.86502C20.5453 7.80791 20.3983 7.7785 20.2498 7.7785C20.1012 7.7785 19.9542 7.80791 19.8171 7.86502C19.68 7.92214 19.5556 8.00583 19.451 8.11128L11.0698 16.5038L7.54851 12.9713C7.43992 12.8664 7.31174 12.7839 7.17128 12.7285C7.03082 12.6732 6.88083 12.646 6.72987 12.6487C6.57892 12.6513 6.42996 12.6836 6.2915 12.7438C6.15303 12.804 6.02778 12.8908 5.92289 12.9994C5.81799 13.108 5.73551 13.2362 5.68016 13.3766C5.6248 13.5171 5.59766 13.6671 5.60027 13.818C5.60288 13.969 5.6352 14.118 5.69538 14.2564C5.75556 14.3949 5.84242 14.5201 5.95101 14.625L10.271 18.945C10.3756 19.0505 10.5 19.1342 10.6371 19.1913C10.7742 19.2484 10.9212 19.2778 11.0698 19.2778C11.2183 19.2778 11.3653 19.2484 11.5024 19.1913C11.6395 19.1342 11.7639 19.0505 11.8685 18.945L21.0485 9.76503C21.1627 9.65968 21.2538 9.53182 21.3162 9.38951C21.3785 9.2472 21.4107 9.09352 21.4107 8.93815C21.4107 8.78279 21.3785 8.62911 21.3162 8.48679C21.2538 8.34448 21.1627 8.21662 21.0485 8.11128Z" fill="#CC2B24"/>
</svg>
