<svg width="22" height="22" viewBox="0 0 22 22" fill="none" xmlns="http://www.w3.org/2000/svg">
<g clip-path="url(#clip0_405_670)">
<path d="M13.3589 2.4325C13.5323 2.48102 13.6945 2.56325 13.8361 2.67449C13.9778 2.78572 14.0961 2.92378 14.1844 3.08077C14.2726 3.23776 14.3291 3.41061 14.3505 3.58943C14.3719 3.76824 14.3579 3.94953 14.3092 4.12292L10.2604 18.5482C10.1622 18.8982 9.92904 19.195 9.61211 19.3731C9.29518 19.5512 8.92047 19.5962 8.57041 19.498C8.22035 19.3999 7.92362 19.1667 7.74549 18.8497C7.56736 18.5328 7.52243 18.1581 7.62058 17.808L11.6694 3.38096C11.718 3.20761 11.8003 3.04553 11.9116 2.904C12.0228 2.76246 12.1609 2.64423 12.3179 2.55607C12.4749 2.4679 12.6477 2.41153 12.8265 2.39017C13.0052 2.36881 13.1865 2.38289 13.3598 2.43159L13.3589 2.4325ZM6.90786 6.11945C7.16453 6.37644 7.3087 6.7248 7.3087 7.08802C7.3087 7.45123 7.16453 7.79959 6.90786 8.05659L4.00215 10.965L6.90968 13.8726C7.16669 14.1297 7.31102 14.4784 7.31093 14.8419C7.31085 15.2054 7.16635 15.5541 6.90923 15.8111C6.6521 16.0681 6.30342 16.2124 5.93988 16.2123C5.57634 16.2122 5.22772 16.0677 4.97072 15.8106L1.09371 11.9336C0.837041 11.6766 0.692871 11.3282 0.692871 10.965C0.692871 10.6018 0.837041 10.2535 1.09371 9.99646L4.96981 6.11945C5.09709 5.99208 5.24823 5.89105 5.41458 5.82211C5.58092 5.75318 5.75922 5.7177 5.93929 5.7177C6.11935 5.7177 6.29766 5.75318 6.464 5.82211C6.63035 5.89105 6.78057 5.99208 6.90786 6.11945ZM15.0219 8.05659C14.8872 7.93111 14.7792 7.77979 14.7043 7.61166C14.6294 7.44353 14.5891 7.26204 14.5859 7.07801C14.5826 6.89398 14.6165 6.71117 14.6854 6.54051C14.7543 6.36984 14.8569 6.21481 14.9871 6.08466C15.1173 5.95451 15.2723 5.8519 15.4429 5.78297C15.6136 5.71403 15.7964 5.68018 15.9804 5.68343C16.1645 5.68668 16.346 5.72696 16.5141 5.80187C16.6822 5.87678 16.8335 5.98479 16.959 6.11945L20.836 9.99555C21.093 10.2526 21.2373 10.6011 21.2373 10.9646C21.2373 11.328 21.093 11.6766 20.836 11.9336L16.9599 15.8106C16.8327 15.9379 16.6816 16.0389 16.5153 16.1078C16.349 16.1768 16.1708 16.2123 15.9908 16.2123C15.8108 16.2124 15.6325 16.1769 15.4662 16.1081C15.2999 16.0392 15.1487 15.9383 15.0214 15.8111C14.8941 15.6838 14.7931 15.5327 14.7242 15.3664C14.6553 15.2001 14.6198 15.0219 14.6197 14.8419C14.6197 14.6619 14.6551 14.4836 14.7239 14.3173C14.7928 14.151 14.8937 13.9999 15.021 13.8726L17.9285 10.965L15.0219 8.05659Z" fill="#CC2B24"/>
</g>
<defs>
<clipPath id="clip0_405_670">
<rect width="21.9298" height="21.9298" fill="white"/>
</clipPath>
</defs>
</svg>
