<svg width="42" height="42" viewBox="0 0 42 42" fill="none" xmlns="http://www.w3.org/2000/svg">
<path d="M36.75 22.3125V28.875H5.25V7.875H18.375V5.25H5.25C4.55381 5.25 3.88613 5.52656 3.39384 6.01884C2.90156 6.51113 2.625 7.17881 2.625 7.875V28.875C2.625 29.5712 2.90156 30.2389 3.39384 30.7312C3.88613 31.2234 4.55381 31.5 5.25 31.5H15.75V36.75H10.5V39.375H31.5V36.75H26.25V31.5H36.75C37.4462 31.5 38.1139 31.2234 38.6062 30.7312C39.0984 30.2389 39.375 29.5712 39.375 28.875V22.3125H36.75ZM23.625 36.75H18.375V31.5H23.625V36.75Z" fill="#CC2B24"/>
<path d="M39.375 13.125V10.5H36.6174C36.4472 9.67871 36.121 8.89768 35.6567 8.19919L37.6123 6.24356L35.7564 4.38769L33.8008 6.34331C33.1023 5.87897 32.3213 5.55284 31.5 5.38256V2.625H28.875V5.38256C28.0537 5.55284 27.2727 5.87897 26.5742 6.34331L24.6186 4.38769L22.7627 6.24356L24.7183 8.19919C24.254 8.89768 23.9278 9.67871 23.7576 10.5H21V13.125H23.7576C23.9278 13.9463 24.254 14.7273 24.7183 15.4258L22.7627 17.3814L24.6186 19.2373L26.5742 17.2817C27.2727 17.746 28.0537 18.0722 28.875 18.2424V21H31.5V18.2424C32.3213 18.0722 33.1023 17.746 33.8008 17.2817L35.7564 19.2373L37.6123 17.3814L35.6567 15.4258C36.121 14.7273 36.4472 13.9463 36.6174 13.125H39.375ZM30.1875 15.75C29.4087 15.75 28.6475 15.5191 27.9999 15.0864C27.3524 14.6538 26.8477 14.0388 26.5497 13.3193C26.2517 12.5998 26.1737 11.8081 26.3257 11.0443C26.4776 10.2805 26.8526 9.57894 27.4033 9.02827C27.9539 8.4776 28.6555 8.10259 29.4193 7.95066C30.1831 7.79873 30.9748 7.8767 31.6943 8.17472C32.4138 8.47274 33.0288 8.97742 33.4614 9.62494C33.8941 10.2725 34.125 11.0337 34.125 11.8125C34.124 12.8565 33.7088 13.8574 32.9706 14.5956C32.2324 15.3338 31.2315 15.749 30.1875 15.75Z" fill="#CC2B24"/>
</svg>
