<svg width="42" height="42" viewBox="0 0 42 42" fill="none" xmlns="http://www.w3.org/2000/svg">
<path d="M26.25 11.8125C26.9749 11.8125 27.5625 11.2249 27.5625 10.5C27.5625 9.77513 26.9749 9.1875 26.25 9.1875C25.5251 9.1875 24.9375 9.77513 24.9375 10.5C24.9375 11.2249 25.5251 11.8125 26.25 11.8125Z" fill="#CC2B24"/>
<path d="M30.1875 11.8125C30.9124 11.8125 31.5 11.2249 31.5 10.5C31.5 9.77513 30.9124 9.1875 30.1875 9.1875C29.4626 9.1875 28.875 9.77513 28.875 10.5C28.875 11.2249 29.4626 11.8125 30.1875 11.8125Z" fill="#CC2B24"/>
<path d="M34.125 11.8125C34.8499 11.8125 35.4375 11.2249 35.4375 10.5C35.4375 9.77513 34.8499 9.1875 34.125 9.1875C33.4001 9.1875 32.8125 9.77513 32.8125 10.5C32.8125 11.2249 33.4001 11.8125 34.125 11.8125Z" fill="#CC2B24"/>
<path d="M37.125 5H5.625C4.92881 5 4.26113 5.27656 3.76884 5.76884C3.27656 6.26113 3 6.92881 3 7.625V33.875C3 34.5712 3.27656 35.2389 3.76884 35.7312C4.26113 36.2234 4.92881 36.5 5.625 36.5H37.125C37.8212 36.5 38.4889 36.2234 38.9812 35.7312C39.4734 35.2389 39.75 34.5712 39.75 33.875V7.625C39.75 6.92881 39.4734 6.26113 38.9812 5.76884C38.4889 5.27656 37.8212 5 37.125 5ZM37.125 7.625V12.875H5.625V7.625H37.125ZM5.625 15.5H13.5V33.875H5.625V15.5ZM16.125 33.875V15.5H37.125V33.875H16.125Z" fill="#CC2B24"/>
</svg>
