<svg width="32" height="32" viewBox="0 0 32 32" fill="none" xmlns="http://www.w3.org/2000/svg">
<path d="M29.509 17.689L23.509 14.139C23.3548 14.048 23.1789 14.0001 22.9999 14.0002C22.8208 14.0004 22.645 14.0487 22.491 14.14L16.491 17.69C16.3415 17.7784 16.2177 17.9041 16.1316 18.0549C16.0455 18.2057 16.0001 18.3763 16 18.55V25.45C16 25.804 16.187 26.131 16.491 26.31L22.491 29.86C22.6448 29.9522 22.8207 30.0009 23 30.0009C23.1793 30.0009 23.3552 29.9522 23.509 29.86L29.509 26.31C29.6585 26.2216 29.7823 26.0958 29.8684 25.945C29.9545 25.7942 29.9999 25.6236 30 25.45V18.55C30 18.3762 29.9548 18.2054 29.8687 18.0544C29.7826 17.9034 29.6586 17.7774 29.509 17.689ZM28 24.88L23 27.838L18 24.88V19.12L23 16.162L28 19.12V24.88Z" fill="#CC2B24"/>
<path d="M6 7C6.55228 7 7 6.55228 7 6C7 5.44772 6.55228 5 6 5C5.44772 5 5 5.44772 5 6C5 6.55228 5.44772 7 6 7Z" fill="#CC2B24"/>
<path d="M9 7C9.55228 7 10 6.55228 10 6C10 5.44772 9.55228 5 9 5C8.44772 5 8 5.44772 8 6C8 6.55228 8.44772 7 9 7Z" fill="#CC2B24"/>
<path d="M28 2H4C2.897 2 2 2.897 2 4V24C2 25.103 2.897 26 4 26H13V24H4V10H28V14H30V4C30 2.897 29.103 2 28 2ZM4 8V4H28V8H4Z" fill="#CC2B24"/>
</svg>
