<svg width="22" height="22" viewBox="0 0 22 22" fill="none" xmlns="http://www.w3.org/2000/svg">
<g clip-path="url(#clip0_405_679)">
<path d="M7.06231 15.1316L6.10974 18.9021C6.05201 19.1516 5.92692 19.3531 5.73449 19.5066C5.54205 19.6601 5.31112 19.7368 5.04171 19.7368C4.67608 19.7368 4.3778 19.5929 4.14687 19.3051C3.91595 19.0173 3.84859 18.7007 3.94481 18.3553L4.75305 15.1316H1.60669C1.22181 15.1316 0.913912 14.9831 0.682986 14.686C0.45206 14.389 0.384707 14.0578 0.480926 13.6924C0.538658 13.4238 0.673364 13.2127 0.885046 13.0592C1.09673 12.9057 1.33728 12.829 1.60669 12.829H5.33037L6.485 8.22369H3.33863C2.95376 8.22369 2.64585 8.07517 2.41493 7.77813C2.184 7.48109 2.11665 7.1499 2.21287 6.78455C2.2706 6.51591 2.40531 6.30483 2.61699 6.15132C2.82867 5.99781 3.06922 5.92106 3.33863 5.92106H7.06231L8.01488 2.1505C8.07261 1.90105 8.19769 1.69957 8.39013 1.54606C8.58257 1.39255 8.8135 1.3158 9.08291 1.3158C9.44854 1.3158 9.74682 1.45971 9.97775 1.74754C10.2087 2.03537 10.276 2.35198 10.1798 2.69737L9.37157 5.92106H13.9901L14.9426 2.1505C15.0004 1.90105 15.1255 1.69957 15.3179 1.54606C15.5103 1.39255 15.7413 1.3158 16.0107 1.3158C16.3763 1.3158 16.6746 1.45971 16.9055 1.74754C17.1364 2.03537 17.2038 2.35198 17.1076 2.69737L16.2993 5.92106H19.4457C19.8306 5.92106 20.1385 6.06958 20.3694 6.36662C20.6003 6.66366 20.6677 6.99485 20.5715 7.3602C20.5137 7.62884 20.379 7.83992 20.1673 7.99343C19.9557 8.14694 19.7151 8.22369 19.4457 8.22369H15.722L14.5674 12.829H17.7138C18.0986 12.829 18.4065 12.9779 18.6375 13.2757C18.8684 13.5735 18.9357 13.9043 18.8395 14.2681C18.7818 14.5367 18.6471 14.7478 18.4354 14.9013C18.2237 15.0548 17.9832 15.1316 17.7138 15.1316H13.9901L13.0375 18.9021C12.9798 19.1516 12.8547 19.3531 12.6623 19.5066C12.4698 19.6601 12.2389 19.7368 11.9695 19.7368C11.6038 19.7368 11.3056 19.5929 11.0746 19.3051C10.8437 19.0173 10.7764 18.7007 10.8726 18.3553L11.6808 15.1316H7.06231ZM7.63962 12.829H12.2581L13.4128 8.22369H8.79425L7.63962 12.829Z" fill="#CC2B24"/>
</g>
<defs>
<clipPath id="clip0_405_679">
<rect width="21.0526" height="21.0526" fill="white"/>
</clipPath>
</defs>
</svg>
