<svg width="32" height="32" viewBox="0 0 32 32" fill="none" xmlns="http://www.w3.org/2000/svg">
<path d="M9 7C9.55228 7 10 6.55228 10 6C10 5.44772 9.55228 5 9 5C8.44772 5 8 5.44772 8 6C8 6.55228 8.44772 7 9 7Z" fill="#CC2B24"/>
<path d="M26 10H6C5.46957 10 4.96086 9.78929 4.58579 9.41421C4.21071 9.03914 4 8.53043 4 8V4C4 3.46957 4.21071 2.96086 4.58579 2.58579C4.96086 2.21071 5.46957 2 6 2H26C26.5304 2 27.0391 2.21071 27.4142 2.58579C27.7893 2.96086 28 3.46957 28 4V8C28 8.53043 27.7893 9.03914 27.4142 9.41421C27.0391 9.78929 26.5304 10 26 10ZM6 4V8H26V4H6Z" fill="#CC2B24"/>
<path d="M9 17C9.55228 17 10 16.5523 10 16C10 15.4477 9.55228 15 9 15C8.44772 15 8 15.4477 8 16C8 16.5523 8.44772 17 9 17Z" fill="#CC2B24"/>
<path d="M26 20H6C5.46957 20 4.96086 19.7893 4.58579 19.4142C4.21071 19.0391 4 18.5304 4 18V14C4 13.4696 4.21071 12.9609 4.58579 12.5858C4.96086 12.2107 5.46957 12 6 12H26C26.5304 12 27.0391 12.2107 27.4142 12.5858C27.7893 12.9609 28 13.4696 28 14V18C28 18.5304 27.7893 19.0391 27.4142 19.4142C27.0391 19.7893 26.5304 20 26 20ZM6 14V18H26V14H6Z" fill="#CC2B24"/>
<path d="M9 27C9.55228 27 10 26.5523 10 26C10 25.4477 9.55228 25 9 25C8.44772 25 8 25.4477 8 26C8 26.5523 8.44772 27 9 27Z" fill="#CC2B24"/>
<path d="M26 30H6C5.46957 30 4.96086 29.7893 4.58579 29.4142C4.21071 29.0391 4 28.5304 4 28V24C4 23.4696 4.21071 22.9609 4.58579 22.5858C4.96086 22.2107 5.46957 22 6 22H26C26.5304 22 27.0391 22.2107 27.4142 22.5858C27.7893 22.9609 28 23.4696 28 24V28C28 28.5304 27.7893 29.0391 27.4142 29.4142C27.0391 29.7893 26.5304 30 26 30ZM6 24V28H26V24H6Z" fill="#CC2B24"/>
</svg>
