<svg width="18" height="17" viewBox="0 0 18 17" fill="none" xmlns="http://www.w3.org/2000/svg">
<path d="M16.1067 0.0782048C15.8686 0.00831235 15.616 0.00613289 15.3766 0.0711453L1.44976 3.84262C1.1881 3.91551 0.954112 4.06579 0.779381 4.27376C0.604834 4.48165 0.497612 4.73782 0.470935 5.00797C0.444332 5.27811 0.499939 5.54967 0.630503 5.78766C0.744864 5.99604 0.911731 6.17015 1.11411 6.29253L1.20159 6.34101L1.22928 6.35416L2.62329 6.97311C3.96189 7.56782 4.24518 9.34373 3.1577 10.3251L0.354827 12.8541C0.157203 13.0325 0.0386372 13.2822 0.0249715 13.5481C0.011361 13.814 0.103947 14.0745 0.282238 14.2722L1.31309 15.4142C1.40144 15.5124 1.50843 15.5926 1.62765 15.6494C1.74686 15.7061 1.87616 15.7384 2.00802 15.7451C2.14004 15.7519 2.27263 15.7332 2.39715 15.6888C2.52155 15.6444 2.63619 15.5756 2.73408 15.487L5.535 12.9579C6.62285 11.9763 8.36082 12.4406 8.81483 13.8338L9.2864 15.2807L9.29665 15.3095C9.38752 15.5544 9.54837 15.7676 9.75912 15.9219C9.97011 16.0763 10.2222 16.1655 10.4833 16.178L10.5486 16.1813C10.8215 16.1839 11.0884 16.1019 11.3135 15.9477C11.5385 15.7935 11.7111 15.574 11.8073 15.3188L11.8073 15.3178L16.9812 1.84886C17.0703 1.61733 17.0939 1.3658 17.0487 1.12187C17.0034 0.877893 16.8916 0.650984 16.7253 0.466785C16.5591 0.282585 16.3448 0.148136 16.1067 0.0782048Z" fill="#CC2B24" stroke="#CC2B24" stroke-width="0.0475814"/>
</svg>
