<svg width="20" height="20" viewBox="0 0 20 20" fill="none" xmlns="http://www.w3.org/2000/svg">
<path d="M10 0C13.7384 0 15.6077 -0.000102481 17 0.803711C17.9121 1.33032 18.6697 2.08788 19.1963 3C20.0001 4.3923 20 6.26159 20 10C20 13.7384 20.0001 15.6077 19.1963 17C18.6697 17.9121 17.9121 18.6697 17 19.1963C15.6077 20.0001 13.7384 20 10 20C6.26159 20 4.3923 20.0001 3 19.1963C2.08788 18.6697 1.33032 17.9121 0.803711 17C-0.000102481 15.6077 0 13.7384 0 10C0 6.26159 -0.000102481 4.3923 0.803711 3C1.33032 2.08788 2.08788 1.33032 3 0.803711C4.3923 -0.000102481 6.26159 0 10 0ZM9.79199 4.00879C6.21741 4.19621 3.85775 7.00933 4.00684 10.5566C4.07203 12.1092 4.69444 13.4455 4.8418 14.9189C4.87939 15.3006 4.76946 15.7717 5.20801 15.9385C5.74779 16.1431 6.57594 15.799 7.02832 15.4844C7.18232 15.3796 7.32939 15.2575 7.44238 15.1064C7.91018 15.4177 8.35423 15.7184 8.91113 15.8525C11.3633 16.4423 14.0498 15.0921 15.2441 12.9238C17.489 8.85037 14.4547 3.76466 9.79199 4.00879ZM9.66016 6.96094C10.9967 6.84237 12.2375 7.52355 12.7979 8.75293C14.0379 11.4883 10.8631 14.1892 8.4043 12.5117V12.5098C8.21068 12.6611 8.02375 12.8677 7.80957 12.9863C7.49953 13.1531 7.40357 12.979 7.28711 12.7041C6.92045 11.829 6.87574 10.3384 7.08984 9.42188C7.37773 8.17524 8.33897 7.07786 9.66016 6.96094Z" fill="white"/>
</svg>
