<svg width="20" height="20" viewBox="0 0 20 20" fill="none" xmlns="http://www.w3.org/2000/svg">
<path d="M10.4004 0C14.9234 0 17.197 -0.000281843 18.5986 1.40137C20.0002 2.80302 20 5.07673 20 9.59961V10.4004C20 14.9233 20.0003 17.197 18.5986 18.5986C17.197 20.0002 14.9233 20 10.4004 20H9.59961C5.07673 20 2.80302 20.0002 1.40137 18.5986C-0.000268096 17.197 0 14.9351 0 10.4004V9.59961C0 5.07673 -0.000188252 2.80303 1.40137 1.40137C2.8148 -0.000281843 5.07664 0 9.59961 0H10.4004ZM13.7227 9.96484C13.6638 9.88239 13.5453 9.87074 13.4746 9.94141C12.4971 10.7775 11.2955 11.3193 10 11.3193C8.70448 11.3193 7.50293 10.7776 6.52539 9.94141C6.45472 9.88251 6.33721 9.89417 6.27832 9.96484L5.24219 11.3779C5.19507 11.4486 5.20673 11.5427 5.26562 11.6016C6.13723 12.3083 7.14991 12.7917 8.20996 13.0391L6.01953 16.9023C5.96069 17.0083 6.04254 17.1492 6.16016 17.1494H8.30371C8.37424 17.1494 8.43338 17.1143 8.45703 17.0439L9.98828 13.6279L11.5195 17.0439C11.5432 17.1027 11.6023 17.1494 11.6729 17.1494H13.8164C13.9459 17.1494 14.0168 17.0201 13.958 16.9023L11.7666 13.0391C12.8267 12.7917 13.8403 12.3201 14.7119 11.6016C14.8059 11.5427 14.8176 11.4485 14.7588 11.3779L13.7227 9.96484ZM10.001 2.88574C9.02355 2.88574 8.13992 3.28605 7.50391 3.92188C6.86794 4.55784 6.4669 5.44147 6.4668 6.41895C6.4668 7.39657 6.86786 8.27997 7.50391 8.91602C8.13995 9.55205 9.03514 9.95312 10.001 9.95312C10.9784 9.95302 11.8621 9.55197 12.498 8.91602C13.1339 8.28 13.5342 7.39637 13.5342 6.41895C13.5341 5.44148 13.134 4.55784 12.498 3.92188C11.8621 3.28592 10.9784 2.88585 10.001 2.88574ZM10.001 4.80566C10.4482 4.80577 10.8483 4.98226 11.1309 5.27637C11.4253 5.57076 11.6025 5.97154 11.6025 6.40723C11.6025 6.85481 11.4253 7.2554 11.1309 7.53809C10.8365 7.83238 10.4366 8.00966 10.001 8.00977C9.55341 8.00977 9.1528 7.83253 8.87012 7.53809C8.57565 7.24362 8.39844 6.84303 8.39844 6.40723C8.39853 5.97154 8.5875 5.57076 8.87012 5.27637C9.16455 4.98212 9.56534 4.80566 10.001 4.80566Z" fill="white"/>
</svg>
