<svg width="20" height="20" viewBox="0 0 20 20" fill="none" xmlns="http://www.w3.org/2000/svg">
<path d="M15.7568 0C18.1002 0 20 1.89977 20 4.24316V15.7568C20 18.1002 18.1002 20 15.7568 20H4.24316C1.89977 20 0 18.1002 0 15.7568V4.24316C0 1.89977 1.89977 0 4.24316 0H15.7568ZM3.75195 15.293H6.22363V12.0811H10.96L13.1211 15.293H15.8887L13.5059 12.0664C14.2458 11.948 14.7789 11.6667 15.1045 11.2227C15.43 10.7786 15.5928 10.0682 15.5928 9.12109V8.38086C15.5928 7.81851 15.5333 7.37459 15.4297 7.03418C15.3261 6.6938 15.149 6.39726 14.8975 6.13086C14.6311 5.87931 14.3346 5.70238 13.9795 5.58398C13.6243 5.48037 13.1803 5.42092 12.6328 5.4209H3.75195V15.293ZM12.2324 7.59668C12.5728 7.59668 12.8103 7.65613 12.9287 7.75977C13.0469 7.86343 13.1211 8.05596 13.1211 8.33691V9.16504C13.1211 9.46105 13.0471 9.65422 12.9287 9.75781C12.8103 9.8614 12.5727 9.90527 12.2324 9.90527H6.22363V7.59668H12.2324ZM16.3877 3.0332C15.6898 3.0332 15.124 3.59901 15.124 4.29688C15.124 4.99474 15.6898 5.56055 16.3877 5.56055C17.0855 5.56051 17.6514 4.99471 17.6514 4.29688C17.6514 3.59903 17.0855 3.03324 16.3877 3.0332Z" fill="white"/>
</svg>
