<svg width="20" height="20" viewBox="0 0 20 20" fill="none" xmlns="http://www.w3.org/2000/svg">
<path d="M10 0C13.7384 0 15.6077 -0.000122803 17 0.803711C17.9121 1.33032 18.6697 2.08788 19.1963 3C20 4.39229 20 6.26169 20 10C20 13.7383 20.0001 15.6077 19.1963 17C18.6697 17.9121 17.9121 18.6697 17 19.1963C15.6077 20 13.7383 20 10 20C6.26166 20 4.39229 20.0001 3 19.1963C2.0879 18.6697 1.33032 17.9121 0.803711 17C-0.000123764 15.6077 2.03249e-10 13.7383 0 10C0 6.26173 -1.12599e-05 4.39228 0.803711 3C1.33031 2.0879 2.08791 1.33032 3 0.803711C4.3923 -0.00013253 6.26157 0 10 0ZM14.3398 4.75391C14.1873 4.73294 14.0315 4.75388 13.8896 4.81445L4.07324 9.00781C3.389 9.30015 3.35356 10.3045 4.07324 10.6074C4.60596 10.8316 5.25911 11.015 5.96289 11.1338C6.34866 11.199 6.67121 11.134 7.29004 10.752C7.99157 10.3186 10.114 8.77981 11.4355 7.76758C11.9676 7.36005 12.1731 7.61551 11.7227 8.05859C10.5746 9.18658 8.56525 11.0836 8.43848 11.5889C8.29151 12.1794 9.48755 13.0094 9.87793 13.2686C10.6587 13.7863 11.5269 14.2824 12.1113 14.6045C12.8099 14.9892 13.6452 14.5462 13.7715 13.7734L15.0732 5.76172C15.0982 5.60769 15.083 5.44925 15.0273 5.30371C14.9717 5.15813 14.8777 5.03028 14.7568 4.93359C14.6361 4.83707 14.4922 4.77488 14.3398 4.75391Z" fill="white"/>
</svg>
