<svg width="20" height="20" viewBox="0 0 20 20" fill="none" xmlns="http://www.w3.org/2000/svg">
<mask id="mask0_1061_172" style="mask-type:luminance" maskUnits="userSpaceOnUse" x="0" y="0" width="20" height="20">
<path d="M19.802 0H0V20H19.802V0Z" fill="white"/>
</mask>
<g mask="url(#mask0_1061_172)">
<path fill-rule="evenodd" clip-rule="evenodd" d="M1.39197 1.40589C0 2.81178 0 5.07452 0 9.6V10.4C0 14.9255 0 17.1882 1.39197 18.5941C2.78394 20 5.02428 20 9.50495 20H10.297C14.7777 20 17.018 20 18.41 18.5941C19.802 17.1882 19.802 14.9255 19.802 10.4V9.6C19.802 5.07452 19.802 2.81178 18.41 1.40589C17.018 0 14.7777 0 10.297 0H9.50495C5.02428 0 2.78394 0 1.39197 1.40589ZM3.34162 6.08338C3.44887 11.2834 6.02311 14.4084 10.5363 14.4084H10.7921V11.4334C12.4506 11.6 13.7046 12.825 14.2079 14.4084H16.5512C15.9076 12.0417 14.2161 10.7334 13.16 10.2334C14.2161 9.6167 15.7013 8.1167 16.0561 6.08338H13.9273C13.4652 7.73338 12.0958 9.23336 10.7921 9.37502V6.08338H8.66335V11.85C7.34323 11.5167 5.67659 9.90004 5.60234 6.08338H3.34162Z" fill="white"/>
</g>
</svg>
