<svg width="32" height="32" viewBox="0 0 32 32" fill="none" xmlns="http://www.w3.org/2000/svg">
<g clip-path="url(#clip0_1219_19990)">
<circle opacity="0.5" cx="16" cy="16" r="16" fill="#D0D0D0"/>
<circle cx="15.9989" cy="16.0001" r="11.4286" fill="white"/>
<path d="M16 4C19.1826 4 22.2348 5.26428 24.4853 7.51472C26.7357 9.76515 28 12.8174 28 16C28 19.1826 26.7357 22.2348 24.4853 24.4853C22.2348 26.7357 19.1826 28 16 28C12.8174 28 9.76515 26.7357 7.51472 24.4853C5.26428 22.2348 4 19.1826 4 16C4 12.8174 5.26428 9.76515 7.51472 7.51472C9.76515 5.26428 12.8174 4 16 4ZM14.9714 14.9714H11.0286C10.7558 14.9714 10.4942 15.0798 10.3013 15.2727C10.1084 15.4656 10 15.7272 10 16C10 16.2728 10.1084 16.5344 10.3013 16.7273C10.4942 16.9202 10.7558 17.0286 11.0286 17.0286H14.9714V20.9714C14.9714 21.2442 15.0798 21.5058 15.2727 21.6987C15.4656 21.8916 15.7272 22 16 22C16.2728 22 16.5344 21.8916 16.7273 21.6987C16.9202 21.5058 17.0286 21.2442 17.0286 20.9714V17.0286H20.9714C21.2442 17.0286 21.5058 16.9202 21.6987 16.7273C21.8916 16.5344 22 16.2728 22 16C22 15.7272 21.8916 15.4656 21.6987 15.2727C21.5058 15.0798 21.2442 14.9714 20.9714 14.9714H17.0286V11.0286C17.0286 10.7558 16.9202 10.4942 16.7273 10.3013C16.5344 10.1084 16.2728 10 16 10C15.7272 10 15.4656 10.1084 15.2727 10.3013C15.0798 10.4942 14.9714 10.7558 14.9714 11.0286V14.9714Z" fill="#CC2B24"/>
</g>
<defs>
<clipPath id="clip0_1219_19990">
<rect width="32" height="32" fill="white"/>
</clipPath>
</defs>
</svg>
