<svg width="32" height="32" viewBox="0 0 32 32" fill="none" xmlns="http://www.w3.org/2000/svg">
<g clip-path="url(#clip0_1219_20337)">
<path d="M8.46897 30.9088C8.19486 30.9099 7.93174 30.8011 7.73842 30.6068L3.74629 26.614C3.41317 26.2751 3.35162 25.7537 3.59668 25.3466C3.81764 24.9562 3.75109 24.4663 3.43397 24.149C3.11686 23.8317 2.62705 23.7649 2.23652 23.9856C1.82918 24.2313 1.30715 24.1697 0.968114 23.8361L0.563393 23.4316C0.161365 23.0282 0.161131 22.3757 0.562868 21.9721L21.7318 0.803184C22.1351 0.400892 22.788 0.400892 23.1913 0.803184L23.5965 1.20843C23.9298 1.54777 23.9909 2.06973 23.7451 2.47689C23.525 2.86742 23.5922 3.35673 23.9093 3.67358C24.2264 3.99042 24.7157 4.05715 25.1061 3.83678C25.5136 3.59182 26.0351 3.65332 26.3745 3.98634L30.3666 7.97916C30.7691 8.38261 30.7689 9.03582 30.3661 9.43899L9.19846 30.6073C9.00543 30.8013 8.74268 30.9099 8.46897 30.9088ZM2.74049 22.8122C3.27883 22.8121 3.79508 23.0261 4.17541 23.4071C4.82561 24.059 4.96177 25.0643 4.50842 25.8656L8.48077 29.8654L29.6252 8.69664L25.6324 4.72791C24.8358 5.19944 23.8209 5.07078 23.1672 4.41541C22.5173 3.76363 22.381 2.75879 22.8337 1.95739L22.4495 1.54501L1.30506 22.7138L1.71025 23.0944C2.02214 22.9097 2.37798 22.8122 2.74049 22.8122Z" fill="#8B9195"/>
<path d="M10.9813 31.9853C10.7074 31.9863 10.4445 31.8775 10.2513 31.6833L8.81641 30.2483C8.68004 30.1166 8.62535 29.9216 8.67336 29.7382C8.72137 29.5547 8.8646 29.4115 9.04802 29.3635C9.23143 29.3155 9.42647 29.3702 9.55818 29.5066L10.9937 30.9417L15.6335 26.2775L14.1985 24.8664C13.999 24.6607 14.0015 24.3329 14.2042 24.1302C14.4068 23.9275 14.7346 23.9251 14.9404 24.1246L16.3753 25.5595C16.7776 25.9629 16.7776 26.6157 16.3753 27.0191L11.7108 31.6835C11.5178 31.8777 11.2551 31.9864 10.9813 31.9853Z" fill="#8B9195"/>
<path d="M18.8741 24.0919C18.6002 24.0929 18.3373 23.9841 18.1441 23.7899L16.7091 22.355C16.511 22.1491 16.514 21.8224 16.7161 21.6203C16.9181 21.4182 17.2447 21.4149 17.4507 21.613L18.8861 23.0482L30.7018 11.2082L29.2668 9.7973C29.0664 9.59171 29.0684 9.26318 29.2715 9.06014C29.4745 8.85711 29.803 8.85503 30.0086 9.05547L31.4433 10.4906C31.8458 10.8941 31.8456 11.5473 31.4429 11.9505L19.6033 23.7901C19.4104 23.9842 19.1478 24.0929 18.8741 24.0919Z" fill="#8B9195"/>
<path d="M12.774 30.4023C12.6348 30.4024 12.5014 30.3471 12.4031 30.2486L10.609 28.4548C10.4094 28.2491 10.4119 27.9213 10.6146 27.7186C10.8172 27.5159 11.145 27.5134 11.3508 27.713L13.1449 29.5071C13.2949 29.6571 13.3397 29.8827 13.2585 30.0787C13.1773 30.2747 12.9861 30.4025 12.7739 30.4026L12.774 30.4023Z" fill="#8B9195"/>
<path d="M14.5686 28.6084C14.4294 28.6086 14.2959 28.5533 14.1977 28.4547L12.4036 26.6606C12.1987 26.4557 12.1988 26.1236 12.4037 25.9187C12.6087 25.7139 12.9408 25.714 13.1457 25.9189L14.9398 27.713C15.0898 27.863 15.1347 28.0886 15.0535 28.2846C14.9723 28.4807 14.781 28.6085 14.5689 28.6085L14.5686 28.6084Z" fill="#8B9195"/>
<path d="M20.6677 22.5084C20.5285 22.5086 20.3951 22.4533 20.2968 22.3547L18.5027 20.5609C18.3039 20.3551 18.3068 20.0279 18.5091 19.8255C18.7115 19.6232 19.0387 19.6203 19.2445 19.8191L21.0386 21.6129C21.1886 21.7629 21.2334 21.9885 21.1522 22.1845C21.0711 22.3805 20.8798 22.5083 20.6677 22.5084Z" fill="#8B9195"/>
<path d="M22.4615 20.7146C22.3223 20.7147 22.1889 20.6594 22.0906 20.5609L20.2965 18.7668C20.0969 18.5611 20.0994 18.2333 20.3021 18.0306C20.5047 17.8279 20.8325 17.8254 21.0383 18.025L22.8324 19.8191C22.9824 19.9691 23.0272 20.1947 22.946 20.3907C22.8648 20.5867 22.6736 20.7145 22.4614 20.7145L22.4615 20.7146Z" fill="#8B9195"/>
<path d="M24.2554 18.9208C24.1163 18.921 23.9828 18.8656 23.8845 18.7671L22.0904 16.9733C21.8899 16.7677 21.892 16.4392 22.0951 16.2362C22.2981 16.0331 22.6266 16.0311 22.8322 16.2315L24.6263 18.0253C24.7763 18.1753 24.8212 18.4009 24.74 18.5969C24.6589 18.793 24.4676 18.9208 24.2554 18.9208Z" fill="#8B9195"/>
<path d="M26.0503 17.1272C25.9112 17.1274 25.7777 17.0721 25.6795 16.9735L23.8859 15.1794C23.75 15.0476 23.6957 14.8528 23.7438 14.6697C23.7919 14.4866 23.9349 14.3436 24.118 14.2955C24.3011 14.2475 24.4959 14.3018 24.6277 14.4377L26.4212 16.2318C26.5712 16.3818 26.6161 16.6074 26.5349 16.8034C26.4537 16.9994 26.2625 17.1272 26.0503 17.1273V17.1272Z" fill="#8B9195"/>
<path d="M27.8447 15.3331C27.7055 15.3333 27.572 15.278 27.4738 15.1794L25.6797 13.3853C25.5433 13.2536 25.4886 13.0586 25.5366 12.8752C25.5846 12.6918 25.7279 12.5485 25.9113 12.5005C26.0947 12.4525 26.2898 12.5072 26.4215 12.6436L28.2156 14.4377C28.3655 14.5877 28.4104 14.8133 28.3292 15.0093C28.248 15.2053 28.0568 15.3331 27.8446 15.3331H27.8447Z" fill="#8B9195"/>
<path d="M29.6382 13.539C29.499 13.5391 29.3655 13.4838 29.2673 13.3853L27.4732 11.5915C27.2728 11.3859 27.2748 11.0574 27.4779 10.8543C27.6809 10.6513 28.0094 10.6492 28.215 10.8497L30.0091 12.6438C30.1591 12.7938 30.204 13.0194 30.1228 13.2154C30.0416 13.4114 29.8503 13.5392 29.6382 13.5392V13.539Z" fill="#8B9195"/>
<path d="M9.18652 26.5968C8.90826 26.5973 8.64128 26.4869 8.4447 26.2899L4.88121 22.7263C4.47189 22.3163 4.47189 21.6524 4.88121 21.2424L7.3684 18.7552C7.77823 18.3459 8.44216 18.3459 8.85199 18.7552L12.4155 22.3187C12.8248 22.7287 12.8248 23.3926 12.4155 23.8026L9.92835 26.2898C9.73179 26.4868 9.46481 26.5973 9.18652 26.5968ZM8.11017 19.497L5.62314 21.9842L9.18668 25.548L11.6744 23.0603L8.11017 19.497Z" fill="#8B9195"/>
<path d="M13.8506 21.932C13.5724 21.9324 13.3055 21.8222 13.1088 21.6256L9.54528 18.0615C9.13595 17.6517 9.13595 16.9877 9.54528 16.5779L12.0325 14.0907C12.4423 13.6814 13.1062 13.6814 13.5161 14.0907L17.0796 17.6542C17.2764 17.8509 17.387 18.1178 17.387 18.396C17.387 18.6743 17.2764 18.9411 17.0796 19.1378L14.5924 21.6252C14.3958 21.8221 14.1288 21.9324 13.8506 21.932ZM12.7742 14.8326L10.287 17.3198L13.8506 20.8836L16.3378 18.3961V18.3959L16.3383 18.3953L12.7742 14.8326Z" fill="#8B9195"/>
<path d="M18.5145 17.268C18.2362 17.2685 17.9692 17.158 17.7727 16.9611L14.2086 13.3976C13.8005 12.9875 13.8002 12.3246 14.2081 11.9142L16.6963 9.4265C16.8922 9.22914 17.159 9.11845 17.4371 9.11914H17.4381C17.7165 9.11839 17.9836 9.22907 18.1799 9.4265L21.7434 12.9903C21.9402 13.187 22.0508 13.4539 22.0508 13.7321C22.0508 14.0103 21.9402 14.2772 21.7434 14.4739L19.2563 16.9611C19.0597 17.158 18.7927 17.2685 18.5145 17.268ZM17.4381 10.1683L14.9505 12.6555L18.5145 16.2193L21.0022 13.7316L17.4381 10.1683Z" fill="#8B9195"/>
<path d="M23.1785 12.6036C22.9003 12.604 22.6335 12.4938 22.4367 12.2973L18.8734 8.73327C18.4641 8.32342 18.4641 7.65947 18.8734 7.24963L21.3606 4.76244C21.5569 4.565 21.824 4.45432 22.1024 4.45508H22.1034C22.3817 4.45443 22.6487 4.56532 22.8447 4.76296L26.4083 8.32598C26.605 8.52269 26.7156 8.78953 26.7156 9.06778C26.7156 9.34602 26.605 9.61287 26.4083 9.80957L23.9211 12.297C23.7242 12.494 23.4569 12.6043 23.1785 12.6036ZM22.1022 5.50426L19.615 7.99145L23.1785 11.5553L25.6662 9.0678L25.6667 9.06728L22.1022 5.50426Z" fill="#8B9195"/>
</g>
<defs>
<clipPath id="clip0_1219_20337">
<rect width="32" height="32" fill="white"/>
</clipPath>
</defs>
</svg>
