<svg width="32" height="32" viewBox="0 0 32 32" fill="none" xmlns="http://www.w3.org/2000/svg">
<path d="M24.8876 30.6668H7.28759C6.20807 30.6656 5.33324 29.7908 5.33203 28.7113V3.28905C5.33324 2.20953 6.20807 1.33471 7.28759 1.3335H24.8876C25.9671 1.33471 26.8419 2.20953 26.8431 3.28905V28.7113C26.8419 29.7908 25.9671 30.6656 24.8876 30.6668ZM7.28759 2.31127C6.7478 2.31181 6.31035 2.74926 6.30981 3.28905V28.7113C6.31035 29.2511 6.7478 29.6885 7.28759 29.6891H24.8876C25.4274 29.6885 25.8648 29.2511 25.8654 28.7113V3.28905C25.8648 2.74926 25.4274 2.31181 24.8876 2.31127H7.28759Z" fill="#8B9195"/>
<path d="M19.5122 5.24461H10.7122C10.1724 5.24407 9.73491 4.80662 9.73438 4.26683V1.82239C9.73438 1.55238 9.95326 1.3335 10.2233 1.3335H20.001C20.271 1.3335 20.4899 1.55238 20.4899 1.82239V4.26683C20.4894 4.80662 20.0519 5.24407 19.5122 5.24461ZM10.7122 2.31127V4.26683H19.5122V2.31127H10.7122Z" fill="#8B9195"/>
<path d="M7.77795 4.26684C8.04796 4.26684 8.26684 4.04796 8.26684 3.77795C8.26684 3.50795 8.04796 3.28906 7.77795 3.28906C7.50795 3.28906 7.28906 3.50795 7.28906 3.77795C7.28906 4.04796 7.50795 4.26684 7.77795 4.26684Z" fill="#8B9195"/>
<path d="M24.399 4.26684C24.669 4.26684 24.8879 4.04796 24.8879 3.77795C24.8879 3.50795 24.669 3.28906 24.399 3.28906C24.129 3.28906 23.9102 3.50795 23.9102 3.77795C23.9102 4.04796 24.129 4.26684 24.399 4.26684Z" fill="#8B9195"/>
<path d="M7.77795 28.7112C8.04796 28.7112 8.26684 28.4923 8.26684 28.2223C8.26684 27.9523 8.04796 27.7334 7.77795 27.7334C7.50795 27.7334 7.28906 27.9523 7.28906 28.2223C7.28906 28.4923 7.50795 28.7112 7.77795 28.7112Z" fill="#8B9195"/>
<path d="M24.399 28.7112C24.669 28.7112 24.8879 28.4923 24.8879 28.2223C24.8879 27.9523 24.669 27.7334 24.399 27.7334C24.129 27.7334 23.9102 27.9523 23.9102 28.2223C23.9102 28.4923 24.129 28.7112 24.399 28.7112Z" fill="#8B9195"/>
<path d="M16.5748 5.24461C16.3048 5.24461 16.0859 5.02572 16.0859 4.75572V1.82239C16.0859 1.55238 16.3048 1.3335 16.5748 1.3335C16.8448 1.3335 17.0637 1.55238 17.0637 1.82239V4.75572C17.0637 5.02572 16.8448 5.24461 16.5748 5.24461Z" fill="#8B9195"/>
<path d="M22.4446 27.2448H9.73351C8.38414 27.2432 7.29065 26.1497 7.28906 24.8003V11.1114C7.29065 9.76207 8.38414 8.66858 9.73351 8.66699H22.4446C23.794 8.66858 24.8875 9.76207 24.8891 11.1114V24.8003C24.8875 26.1497 23.794 27.2432 22.4446 27.2448ZM9.73351 9.64477C8.92386 9.64566 8.26773 10.3018 8.26684 11.1114V24.8003C8.26773 25.61 8.92386 26.2661 9.73351 26.267H22.4446C23.2543 26.2661 23.9104 25.61 23.9113 24.8003V11.1114C23.9104 10.3018 23.2543 9.64566 22.4446 9.64477H9.73351Z" fill="#8B9195"/>
<path d="M11.1978 18.4445C10.4068 18.4449 9.69359 17.9685 9.39096 17.2377C9.08833 16.5069 9.25599 15.6658 9.81568 15.1068C10.5888 14.3674 11.8069 14.3674 12.58 15.1068C12.948 15.4725 13.1545 15.9702 13.1534 16.489C13.1534 16.759 12.9345 16.9779 12.6645 16.9779C12.3945 16.9779 12.1756 16.759 12.1756 16.489C12.176 16.2296 12.0727 15.9809 11.8887 15.7981C11.5024 15.4281 10.8932 15.4281 10.507 15.7981C10.227 16.0775 10.143 16.4981 10.2943 16.8635C10.4456 17.2289 10.8023 17.4671 11.1978 17.4667C11.4678 17.4667 11.6867 17.6856 11.6867 17.9556C11.6867 18.2256 11.4678 18.4445 11.1978 18.4445Z" fill="#8B9195"/>
<path d="M11.1977 21.3779C10.1182 21.3767 9.2434 20.5019 9.24219 19.4224C9.24219 19.1524 9.46107 18.9335 9.73108 18.9335C10.0011 18.9335 10.22 19.1524 10.22 19.4224C10.2204 19.9617 10.6578 20.3987 11.1972 20.3986C11.7366 20.3984 12.1738 19.9612 12.174 19.4218C12.1741 18.8825 11.7371 18.445 11.1977 18.4446C10.9277 18.4446 10.7089 18.2257 10.7089 17.9557C10.7089 17.6857 10.9277 17.4668 11.1977 17.4668C12.2778 17.4668 13.1533 18.3423 13.1533 19.4224C13.1533 20.5024 12.2778 21.3779 11.1977 21.3779Z" fill="#8B9195"/>
<path d="M16.0884 18.4445C15.2975 18.4449 14.5842 17.9685 14.2816 17.2377C13.979 16.5069 14.1466 15.6658 14.7063 15.1068C15.4794 14.3674 16.6975 14.3674 17.4706 15.1068C17.8387 15.4725 18.0451 15.9702 18.044 16.489C18.044 16.759 17.8251 16.9779 17.5551 16.9779C17.2851 16.9779 17.0662 16.759 17.0662 16.489C17.0667 16.2296 16.9633 15.9809 16.7793 15.7981C16.393 15.4281 15.7838 15.4281 15.3976 15.7981C15.1176 16.0775 15.0337 16.4981 15.1849 16.8635C15.3362 17.2289 15.6929 17.4671 16.0884 17.4667C16.3584 17.4667 16.5773 17.6856 16.5773 17.9556C16.5773 18.2256 16.3584 18.4445 16.0884 18.4445Z" fill="#8B9195"/>
<path d="M16.0884 21.3779C15.0088 21.3767 14.134 20.5019 14.1328 19.4224C14.1328 19.1524 14.3517 18.9335 14.6217 18.9335C14.8917 18.9335 15.1106 19.1524 15.1106 19.4224C15.111 19.9617 15.5485 20.3987 16.0879 20.3986C16.6272 20.3984 17.0644 19.9612 17.0646 19.4218C17.0647 18.8825 16.6277 18.445 16.0884 18.4446C15.8184 18.4446 15.5995 18.2257 15.5995 17.9557C15.5995 17.6857 15.8184 17.4668 16.0884 17.4668C17.1684 17.4668 18.0439 18.3423 18.0439 19.4224C18.0439 20.5024 17.1684 21.3779 16.0884 21.3779Z" fill="#8B9195"/>
<path d="M20.9751 21.3781H19.5084C19.2384 21.3781 19.0195 21.1593 19.0195 20.8892V15.0226C19.0195 14.7526 19.2384 14.5337 19.5084 14.5337H20.9751C22.0546 14.5349 22.9294 15.4097 22.9307 16.4892V19.4226C22.9294 20.5021 22.0546 21.3769 20.9751 21.3781ZM19.9973 20.4004H20.9751C21.5149 20.3998 21.9523 19.9624 21.9529 19.4226V16.4892C21.9523 15.9495 21.5149 15.512 20.9751 15.5115H19.9973V20.4004Z" fill="#8B9195"/>
</svg>
